<?xml version="1.0" encoding="iso-8859-1"?>
<!-- Generator: Adobe Illustrator 18.1.1, SVG Export Plug-In . SVG Version: 6.00 Build 0)  -->
<svg version="1.1" id="Capa_1" xmlns="http://www.w3.org/2000/svg" xmlns:xlink="http://www.w3.org/1999/xlink" x="0px" y="0px"
	 viewBox="0 0 478.165 478.165" style="enable-background:new 0 0 478.165 478.165;" xml:space="preserve">
<g>
	<path id="Readernaut" d="M17.274,192.661c11.197-37.855,41.301-44.848,46.661-45.784C93.421,77.244,163.373,28.232,244.721,28.232
		c81.686,0,151.638,49.211,181.105,119.043c0.877,0.239,1.853,0.478,2.909,0.777V54.411c-10.34-4.224-17.772-14.285-17.772-26.18
		C410.923,12.632,423.893,0,439.533,0c15.859,0,28.789,12.632,28.789,28.232c0,13.369-9.364,24.526-21.996,27.534v101.072
		c9.065,6.635,18.828,17.772,24.287,35.823c0,0,9.504,46.462-6.316,58.197c0,0-7.591,10.739-29.945,19.127
		c-1.813,6.535-3.746,12.97-6.117,19.405c-8.328,1.116-17.254,2.829-26.678,4.742c13.628-23.769,21.517-51.044,21.517-79.873
		c0-93.083-80.69-168.493-180.009-168.493c-99.418,0-180.029,75.411-180.029,168.493c0,29.686,8.169,57.519,22.673,81.786
		c-8.189-1.833-16.118-3.327-23.57-4.702c-2.59-6.595-4.861-13.508-6.734-20.501c-0.06-0.04-0.239-0.04-0.299-0.06
		c-23.589-8.448-31.698-19.904-31.698-19.904C7.69,239.122,17.274,192.661,17.274,192.661z M239.082,400.284
		C170.147,317.422,0,309.691,0,309.691v63.456c154.069,0.837,239.082,105.017,239.082,105.017l0,0
		c0,0,85.054-104.18,239.082-105.017v-63.456C478.165,309.691,308.137,317.422,239.082,400.284z M401.678,243.485
		c0,19.844-3.766,38.652-10.42,56.264c-52.678,11.775-116.174,34.587-152.176,78.021l0,0
		c-34.527-41.56-94.358-64.333-145.661-76.546c-7.073-17.832-11.058-37.357-11.058-57.738c0-86.867,71.486-157.356,159.727-157.356
		C330.193,86.109,401.678,156.479,401.678,243.485z M166.68,218.541c0-9.782-7.969-17.692-17.931-17.692
		c-9.862,0-17.951,7.89-17.951,17.692c0,9.782,8.089,17.672,17.951,17.672C158.711,236.114,166.68,228.324,166.68,218.541z
		 M209.217,173.912c0-14.943-12.373-27.235-27.574-27.235c-15.222,0-27.574,12.253-27.574,27.235
		c0,14.963,12.353,27.156,27.574,27.156C196.844,201.068,209.217,188.875,209.217,173.912z"/>
</g>
<g>
</g>
<g>
</g>
<g>
</g>
<g>
</g>
<g>
</g>
<g>
</g>
<g>
</g>
<g>
</g>
<g>
</g>
<g>
</g>
<g>
</g>
<g>
</g>
<g>
</g>
<g>
</g>
<g>
</g>
</svg>
